<svg width="15" height="15" viewBox="0 0 15 15" fill="none" xmlns="http://www.w3.org/2000/svg">
<path d="M11.2759 9.32906C11.0924 9.50619 11.0081 9.76235 11.0499 10.0136L11.6796 13.4855C11.7327 13.7798 11.6081 14.0776 11.3609 14.2476C11.1186 14.4241 10.7963 14.4452 10.5321 14.3041L7.39491 12.674C7.28583 12.6161 7.1647 12.5851 7.04075 12.5815H6.84879C6.7822 12.5914 6.71704 12.6126 6.65754 12.645L3.51962 14.2829C3.3645 14.3605 3.18883 14.3881 3.0167 14.3606C2.59737 14.2815 2.31758 13.8835 2.38629 13.4636L3.0167 9.9917C3.0585 9.73836 2.9742 9.48078 2.79075 9.30084L0.232954 6.83096C0.019037 6.6242 -0.055338 6.3137 0.042412 6.03355C0.137329 5.7541 0.379579 5.55016 0.67212 5.50429L4.19254 4.99549C4.46029 4.96797 4.69545 4.80567 4.81587 4.56573L6.36712 1.39724C6.40395 1.32667 6.45141 1.26175 6.50879 1.20671L6.57254 1.15731C6.60583 1.12061 6.64408 1.09027 6.68658 1.06557L6.76379 1.03734L6.8842 0.987946H7.18241C7.44875 1.01547 7.6832 1.17424 7.80575 1.41135L9.37754 4.56573C9.49087 4.79649 9.71116 4.95668 9.96546 4.99549L13.4859 5.50429C13.7834 5.54663 14.032 5.75127 14.1305 6.03355C14.2232 6.31652 14.1432 6.62702 13.925 6.83096L11.2759 9.32906Z" fill="#FEBB43"/>
</svg>
