<svg width="11" height="8" viewBox="0 0 11 8" fill="none" xmlns="http://www.w3.org/2000/svg">
<path d="M3.93684 7.36C3.48471 7.78667 2.91128 8 2.21654 8C1.53283 8 0.992482 7.75467 0.595489 7.264C0.198497 6.77333 7.6997e-07 5.89867 6.59934e-07 4.64C5.48965e-07 3.37067 0.860151 1.824 2.58045 -2.17614e-07L4.06917 1.04C3.51779 2.08533 3.17043 2.97067 3.02707 3.696C3.50125 3.84533 3.88722 4.112 4.18496 4.496C4.47168 4.88 4.61504 5.34933 4.61504 5.904C4.61504 6.448 4.38897 6.93333 3.93684 7.36ZM10.3383 7.344C9.89724 7.77067 9.33484 7.984 8.65113 7.984C7.96742 7.99467 7.42707 7.75467 7.03008 7.264C6.63308 6.77333 6.43459 5.89333 6.43459 4.624C6.43459 3.344 7.28371 1.80267 8.98195 -7.77251e-07L10.5038 1.04C9.9193 2.04267 9.57193 2.928 9.46165 3.696C9.92481 3.84533 10.2997 4.112 10.5865 4.496C10.8622 4.86933 11 5.312 11 5.824C11 5.84533 11 5.99467 11 6.272C11 6.56 10.7794 6.91733 10.3383 7.344Z" fill="#FB3F6C"/>
</svg>
